HIERARCHY
ROOT hips_JNT
{
    OFFSET 0 0 0
    CHANNELS 6 Xposition Yposition Zposition Zrotation Xrotation Yrotation
    JOINT spine_JNT
    {
        OFFSET -0.000424254 9.31981 2.54342
        CHANNELS 3 Zrotation Xrotation Yrotation
        JOINT spine1_JNT
        {
            OFFSET 0 10.8731 -4.54485e-05
            CHANNELS 3 Zrotation Xrotation Yrotation
            JOINT spine2_JNT
            {
                OFFSET 0 12.4264 -5.95116
                CHANNELS 3 Zrotation Xrotation Yrotation
                JOINT neck_JNT
                {
                    OFFSET 0 13.9797 -1.46048
                    CHANNELS 3 Zrotation Xrotation Yrotation
                    JOINT head_JNT
                    {
                        OFFSET 0 5.8702 2.0915
                        CHANNELS 3 Zrotation Xrotation Yrotation
                        End Site
                        {
                            OFFSET 0 0 0
                        }
                    }
                }
                JOINT l_shoulder_JNT
                {
                    OFFSET 4.39914 12.861 -1.48501
                    CHANNELS 3 Zrotation Xrotation Yrotation
                    JOINT l_arm_JNT
                    {
                        OFFSET 8.75735 -2.31198 -0.0490516
                        CHANNELS 3 Zrotation Xrotation Yrotation
                        JOINT l_forearm_JNT
                        {
                            OFFSET 26.9001 -4.76837e-05 1.2666e-05
                            CHANNELS 3 Zrotation Xrotation Yrotation
                            JOINT l_hand_JNT
                            {
                                OFFSET 23.0148 -4.76837e-05 -3.72529e-06
                                CHANNELS 3 Zrotation Xrotation Yrotation
                                JOINT l_handThumb1_JNT
                                {
                                    OFFSET 3.63 -0.779998 2.13
                                    CHANNELS 3 Zrotation Xrotation Yrotation
                                    JOINT l_handThumb2_JNT
                                    {
                                        OFFSET 3.55114 -2.11837 2.24006
                                        CHANNELS 3 Zrotation Xrotation Yrotation
                                        JOINT l_handThumb3_JNT
                                        {
                                            OFFSET 2.15911 -1.11631 0.963467
                                            CHANNELS 3 Zrotation Xrotation Yrotation
                                            End Site
                                            {
                                                OFFSET 0 0 0
                                            }
                                        }
                                    }
                                }
                                JOINT l_handIndex1_JNT
                                {
                                    OFFSET 10.5149 -0.0410199 2.19757
                                    CHANNELS 3 Zrotation Xrotation Yrotation
                                    JOINT l_handIndex2_JNT
                                    {
                                        OFFSET 2.75183 -0.102866 -0.139054
                                        CHANNELS 3 Zrotation Xrotation Yrotation
                                        JOINT l_handIndex3_JNT
                                        {
                                            OFFSET 2.35301 -0.0733972 -0.0904871
                                            CHANNELS 3 Zrotation Xrotation Yrotation
                                            End Site
                                            {
                                                OFFSET 0 0 0
                                            }
                                        }
                                    }
                                }
                                JOINT l_handMiddle1_JNT
                                {
                                    OFFSET 10.0671 0.139201 0.0595726
                                    CHANNELS 3 Zrotation Xrotation Yrotation
                                    JOINT l_handMiddle2_JNT
                                    {
                                        OFFSET 3.90903 -0.288403 -0.119066
                                        CHANNELS 3 Zrotation Xrotation Yrotation
                                        JOINT l_handMiddle3_JNT
                                        {
                                            OFFSET 2.3284 -0.0191092 -0.0594396
                                            CHANNELS 3 Zrotation Xrotation Yrotation
                                            End Site
                                            {
                                                OFFSET 0 0 0
                                            }
                                        }
                                    }
                                }
                                JOINT l_handRing1_JNT
                                {
                                    OFFSET 9.46811 0.132239 -1.80983
                                    CHANNELS 3 Zrotation Xrotation Yrotation
                                    JOINT l_handRing2_JNT
                                    {
                                        OFFSET 3.28153 -0.224054 -0.0339366
                                        CHANNELS 3 Zrotation Xrotation Yrotation
                                        JOINT l_handRing3_JNT
                                        {
                                            OFFSET 2.245 -0.0702143 -0.00838935
                                            CHANNELS 3 Zrotation Xrotation Yrotation
                                            End Site
                                            {
                                                OFFSET 0 0 0
                                            }
                                        }
                                    }
                                }
                                JOINT l_handPinky1_JNT
                                {
                                    OFFSET 8.49077 -0.0777721 -3.58415
                                    CHANNELS 3 Zrotation Xrotation Yrotation
                                    JOINT l_handPinky2_JNT
                                    {
                                        OFFSET 2.53217 -0.0730753 -0.0170402
                                        CHANNELS 3 Zrotation Xrotation Yrotation
                                        JOINT l_handPinky3_JNT
                                        {
                                            OFFSET 1.95121 0.0251174 0.0170089
                                            CHANNELS 3 Zrotation Xrotation Yrotation
                                            End Site
                                            {
                                                OFFSET 0 0 0
                                            }
                                        }
                                    }
                                }
                            }
                        }
                    }
                }
                JOINT r_shoulder_JNT
                {
                    OFFSET -4.39782 12.8606 -1.48501
                    CHANNELS 3 Zrotation Xrotation Yrotation
                    JOINT r_arm_JNT
                    {
                        OFFSET -8.75732 -2.312 -0.0490502
                        CHANNELS 3 Zrotation Xrotation Yrotation
                        JOINT r_forearm_JNT
                        {
                            OFFSET -26.9 0 1.00583e-05
                            CHANNELS 3 Zrotation Xrotation Yrotation
                            JOINT r_hand_JNT
                            {
                                OFFSET -23.0149 0 0
                                CHANNELS 3 Zrotation Xrotation Yrotation
                                JOINT r_handThumb1_JNT
                                {
                                    OFFSET -3.63 -0.779998 2.13
                                    CHANNELS 3 Zrotation Xrotation Yrotation
                                    JOINT r_handThumb2_JNT
                                    {
                                        OFFSET -3.5512 -2.118 2.24006
                                        CHANNELS 3 Zrotation Xrotation Yrotation
                                        JOINT r_handThumb3_JNT
                                        {
                                            OFFSET -2.1591 -1.116 0.963467
                                            CHANNELS 3 Zrotation Xrotation Yrotation
                                            End Site
                                            {
                                                OFFSET 0 0 0
                                            }
                                        }
                                    }
                                }
                                JOINT r_handIndex1_JNT
                                {
                                    OFFSET -10.5149 -0.0409961 2.19756
                                    CHANNELS 3 Zrotation Xrotation Yrotation
                                    JOINT r_handIndex2_JNT
                                    {
                                        OFFSET -2.7518 -0.102997 -0.13905
                                        CHANNELS 3 Zrotation Xrotation Yrotation
                                        JOINT r_handIndex3_JNT
                                        {
                                            OFFSET -2.353 -0.0730038 -0.0904899
                                            CHANNELS 3 Zrotation Xrotation Yrotation
                                            End Site
                                            {
                                                OFFSET 0 0 0
                                            }
                                        }
                                    }
                                }
                                JOINT r_handMiddle1_JNT
                                {
                                    OFFSET -10.0671 0.139999 0.05957
                                    CHANNELS 3 Zrotation Xrotation Yrotation
                                    JOINT r_handMiddle2_JNT
                                    {
                                        OFFSET -3.9091 -0.288999 -0.11907
                                        CHANNELS 3 Zrotation Xrotation Yrotation
                                        JOINT r_handMiddle3_JNT
                                        {
                                            OFFSET -2.3284 -0.019002 -0.05944
                                            CHANNELS 3 Zrotation Xrotation Yrotation
                                            End Site
                                            {
                                                OFFSET 0 0 0
                                            }
                                        }
                                    }
                                }
                                JOINT r_handRing1_JNT
                                {
                                    OFFSET -9.4681 0.133002 -1.80983
                                    CHANNELS 3 Zrotation Xrotation Yrotation
                                    JOINT r_handRing2_JNT
                                    {
                                        OFFSET -3.2816 -0.224996 -0.0339396
                                        CHANNELS 3 Zrotation Xrotation Yrotation
                                        JOINT r_handRing3_JNT
                                        {
                                            OFFSET -2.245 -0.0699997 -0.0083901
                                            CHANNELS 3 Zrotation Xrotation Yrotation
                                            End Site
                                            {
                                                OFFSET 0 0 0
                                            }
                                        }
                                    }
                                }
                                JOINT r_handPinky1_JNT
                                {
                                    OFFSET -8.4908 -0.0769973 -3.58415
                                    CHANNELS 3 Zrotation Xrotation Yrotation
                                    JOINT r_handPinky2_JNT
                                    {
                                        OFFSET -2.5322 -0.0740051 -0.0170402
                                        CHANNELS 3 Zrotation Xrotation Yrotation
                                        JOINT r_handPinky3_JNT
                                        {
                                            OFFSET -1.9512 0.0259995 0.0170097
                                            CHANNELS 3 Zrotation Xrotation Yrotation
                                            End Site
                                            {
                                                OFFSET 0 0 0
                                            }
                                        }
                                    }
                                }
                            }
                        }
                    }
                }
            }
        }
    }
    JOINT l_upleg_JNT
    {
        OFFSET 10.0614 -5.18575 -0.706233
        CHANNELS 3 Zrotation Xrotation Yrotation
        JOINT l_leg_JNT
        {
            OFFSET -0.348572 -45.5824 -0.819168
            CHANNELS 3 Zrotation Xrotation Yrotation
            JOINT l_foot_JNT
            {
                OFFSET 0.349145 -42.3325 -1.70849
                CHANNELS 3 Zrotation Xrotation Yrotation
                JOINT l_toebase_JNT
                {
                    OFFSET 0.0702709 -8.12666 12.8887
                    CHANNELS 3 Zrotation Xrotation Yrotation
                    End Site
                    {
                        OFFSET 0 0 0
                    }
                }
            }
        }
    }
    JOINT r_upleg_JNT
    {
        OFFSET -10.061 -5.18577 -0.706233
        CHANNELS 3 Zrotation Xrotation Yrotation
        JOINT r_leg_JNT
        {
            OFFSET 0.34858 -45.5824 -0.819165
            CHANNELS 3 Zrotation Xrotation Yrotation
            JOINT r_foot_JNT
            {
                OFFSET -0.34918 -42.3325 -1.70849
                CHANNELS 3 Zrotation Xrotation Yrotation
                JOINT r_toebase_JNT
                {
                    OFFSET -0.0702001 -8.12666 12.8887
                    CHANNELS 3 Zrotation Xrotation Yrotation
                    End Site
                    {
                        OFFSET 0 0 0
                    }
                }
            }
        }
    }
}
MOTION
Frames: 5
Frame Time: 0.033333
92.5318 100.835 -6.76074 12.385 1.58714 -27.1128 -2.95764 1.10692 0.256409 -2.45416 0.802103 0.167859 -4.26887e-07 -1.06722e-07 0 -10.3838 24.7836 8.92995 -28.6373 -8.64845 -2.30839 -4.26887e-07 -1.06722e-07 0 -52.5597 -30.9981 -41.5126 -8.48362e-06 9.59747e-07 -119.169 -0.146677 -0.11551 0.176939 4.10661 20.7048 -22.2077 -0 0 0 -6.65824 -0.0386449 0.665582 -10.4791 3.12314 0.288035 -13.4818 4.00081 0.471468 -8.97972 2.68094 0.223812 -12.2558 2.43105 0.259443 -15.7636 3.11004 0.43341 -10.5033 2.08799 0.189746 -13.9854 -1.38442 -0.167859 -17.9834 -1.7684 -0.279765 -11.9868 -1.18979 0.118694 -15.3249 -3.02575 -0.414958 -19.7153 -3.85985 -0.670269 -13.1324 -2.60175 -0.301316 -4.26887e-07 -1.06722e-07 0 101.473 46.7009 -61.7978 1.28873e-06 -4.15829e-06 57.0582 -0.160798 0.0162533 -0.298707 -4.10661 20.7048 22.2077 -0 0 0 16.3604 0.232042 1.61394 25.8765 7.4593 -1.71687 33.3889 9.37473 -2.81751 22.1465 6.45233 -1.2636 30.2049 5.74569 -1.55163 38.9157 7.16085 -2.53281 25.8669 4.98679 -1.1467 34.3997 -3.23356 1.00326 44.2567 -3.99205 1.62458 29.4772 -2.81712 0.743354 37.8241 -6.99229 2.39787 48.7763 -8.55477 3.88398 32.3781 -6.11311 1.77647 5.22097 0.0550483 -5.54765 -0.203454 39.9286 0.104678 -1.38609 7.10299 -0.338041 8.88328e-07 -1.53324 0.0559529 -9.25104 -27.2391 14.8319 0.628559 41.3529 -0.438794 -2.6142 0.693685 0.0395647 0.333602 -22.6539 1.67347 
92.5455 100.933 -5.6148 9.57212 2.79575 -28.5245 -2.70475 1.13256 0.438794 -2.24714 0.819404 0.328649 -0 0 0 -5.04696 24.2187 5.47076 -29.9259 -9.73662 -2.70786 -0 0 0 -52.7107 -30.6573 -42.6212 5.8818e-06 3.47216e-06 -118.891 -0.149331 -0.139857 0.193827 4.10661 20.7048 -22.2077 -0 0 0 -6.73405 -0.0395289 0.672601 -10.5986 3.15829 0.296075 -13.6358 4.0455 0.481325 -9.08211 2.71121 0.209357 -12.3955 2.4583 0.265408 -15.9434 3.14454 0.444113 -10.623 2.11149 0.193827 -14.1447 -1.39986 -0.172458 -18.1883 -1.78786 -0.288035 -12.1234 -1.20313 -0.137056 -15.4997 -3.05936 -0.411168 -19.9404 -3.90202 -0.684138 -13.2821 -2.63085 -0.303902 -0 0 0 97.7992 39.4313 -60.2769 -7.34625e-06 -5.43119e-06 50.726 -0.169836 -0.010023 -0.256409 -4.10661 20.7048 22.2077 -0 0 0 15.8575 0.218084 1.56519 25.0724 7.24508 -1.61346 32.345 9.11848 -2.64971 21.4601 6.26349 -1.1876 29.2703 5.58498 -1.45855 37.7076 6.97413 -2.38379 25.0678 4.84356 -1.07773 33.34 -3.14584 0.942107 42.892 -3.89365 1.5303 28.5695 -2.73794 0.696609 36.6504 -6.8081 2.25626 47.2561 -8.3558 3.66069 31.3755 -5.94472 1.67066 9.54695 -0.859257 -6.31729 -0.134298 57.9337 0.068528 0.270775 7.38767 -0.306467 -3.45697e-06 -2.62573 0.0395647 -6.01123 -25.7185 16.0345 0.608896 39.2044 -0.395647 -1.624 1.57233 -0.193827 0.299861 -22.9215 1.49145 
91.7438 101.018 -4.18983 7.05288 3.76484 -29.0744 -2.29015 1.08739 0.555317 -1.90875 0.784214 0.4316 -4.26887e-07 -6.31141e-15 0 -2.09916 24.2649 2.94014 -29.9066 -10.1838 -2.82611 -4.26887e-07 -6.31141e-15 0 -52.9492 -29.3934 -44.1548 -0 0 -117.657 -0.152507 -0.128876 0.209357 4.10661 20.7048 -22.2077 -0 0 0 -6.79073 -0.0401963 0.678394 -10.688 3.18457 0.30901 -13.751 4.0789 0.490985 -9.15867 2.73384 0.220287 -12.5 2.47867 0.276953 -16.0779 3.17031 0.454564 -10.7125 2.12906 0.197823 -14.2638 -1.4114 -0.176939 -18.3415 -1.80239 -0.29074 -12.2254 -1.21311 -0.131221 -15.6304 -3.08447 -0.426125 -20.1088 -3.93351 -0.696609 -13.3941 -2.65259 -0.30901 -4.26887e-07 -6.31141e-15 0 90.9697 30.5068 -55.7098 -4.90775e-06 8.35217e-07 42.611 -0.160431 -0.0400729 -0.227282 -4.10661 20.7048 22.2077 -0 0 0 15.4866 0.20806 1.53183 24.4797 7.08616 -1.53948 31.576 8.92756 -2.52941 20.9541 6.12362 -1.13435 28.5814 5.46549 -1.39322 36.8171 6.83444 -2.27767 24.4786 4.73731 -1.03021 32.5584 -3.08045 0.900479 41.8855 -3.81965 1.4623 27.9001 -2.6791 0.663226 35.7852 -6.67042 2.15476 46.1358 -8.20532 3.49909 30.6363 -5.81935 1.59492 13.0713 -0.297598 -10.5164 4.77417e-05 80.5572 0 1.3468 7.18741 -0.167859 -1.02094e-05 -3.21792 0 -3.51789 -23.7751 15.6791 0.594964 37.5294 -0.383594 0.439188 2.21875 0 0.205851 -23.5811 0.998571 
90.059 101.18 -3.13749 6.06439 4.05634 -28.5152 -2.14066 0.998064 0.512817 -1.78467 0.722899 0.40926 -1.59028e-15 -1.06722e-07 0.0559529 -2.30274 24.9142 1.76231 -28.6431 -9.92522 -2.68551 -1.59028e-15 -1.06722e-07 0.0559529 -53.307 -27.6919 -45.7832 3.63455e-06 -5.78286e-06 -115.701 -0.154328 -0.106623 0.189746 4.10661 20.7048 -22.2077 -0 0 0 -6.83149 -0.0406798 0.680697 -10.7523 3.20346 0.30901 -13.8338 4.10291 0.498892 -9.21374 2.75011 0.220287 -12.5751 2.49331 0.285305 -16.1746 3.18883 0.454564 -10.7769 2.14169 0.201741 -14.3494 -1.4197 -0.181308 -18.4517 -1.81284 -0.298707 -12.2988 -1.22028 -0.137056 -15.7245 -3.10252 -0.427958 -20.2299 -3.95614 -0.70554 -13.4746 -2.66822 -0.318981 -1.59028e-15 -1.06722e-07 0.0559529 86.2207 23.7562 -51.784 8.27359e-06 1.00692e-05 37.9668 -0.153766 -0.101114 -0.2307 -4.10661 20.7048 22.2077 -0 0 0 15.4524 0.207148 1.52569 24.4251 7.07148 -1.53183 31.5052 8.90989 -2.51762 20.9075 6.11072 -1.12951 28.5179 5.45444 -1.38703 36.735 6.82148 -2.26734 24.4243 4.7275 -1.02335 32.4864 -3.0744 0.896996 41.7928 -3.81278 1.45586 27.8384 -2.67366 0.664405 35.7056 -6.65767 2.14712 46.0327 -8.1913 3.48475 30.5683 -5.80775 1.58852 13.354 1.53271 -16.3368 180 78.7264 -180 1.22282 6.03562 -0.125115 -3.49044e-06 -2.44464 0.068528 -1.59437 -19.9211 13.7297 0.48029 35.2488 -0.306467 1.35611 2.35632 0.0969133 0.0571629 -27.8246 0.29342 
87.8583 101.375 -2.73959 6.52379 3.834 -27.1692 -2.52836 0.909486 0.303902 -2.09434 0.669852 0.227282 2.13443e-07 5.33608e-08 0 -4.35822 26.0938 1.82986 -26.2825 -9.26568 -2.40309 2.13443e-07 5.33608e-08 0 -53.1062 -26.2221 -46.9215 4.77214e-06 5.17628e-06 -113.42 -0.153528 -0.135818 0.142652 4.10661 20.7048 -22.2077 -0 0 0 -6.89342 -0.0414199 0.688699 -10.85 3.23216 0.30901 -13.9597 4.13937 0.511289 -9.2974 2.77483 0.2307 -12.6893 2.51554 0.274112 -16.3216 3.21696 0.4614 -10.8747 2.16088 0.209357 -14.4796 -1.4323 -0.201741 -18.6191 -1.82869 -0.301316 -12.4104 -1.23117 -0.137056 -15.8673 -3.12993 -0.435212 -20.4139 -3.99048 -0.719817 -13.5969 -2.69195 -0.314035 2.13443e-07 5.33608e-08 0 86.1802 22.6494 -49.7949 -1.41459e-05 -1.50013e-05 39.1709 -0.168458 -0.0997005 -0.2307 -4.10661 20.7048 22.2077 -0 0 0 15.7343 0.21473 1.55315 24.8755 7.1924 -1.58852 32.0896 9.05527 -2.61013 21.2921 6.2171 -1.16901 29.0415 5.54539 -1.43747 37.4118 6.92793 -2.34873 24.8721 4.80834 -1.06016 33.0805 -3.1242 0.927033 42.5578 -3.86921 1.50763 28.3473 -2.71844 0.686423 36.3631 -6.76256 2.22342 46.8841 -8.30618 3.60662 31.13 -5.9032 1.64611 9.69358 -0.423764 -18.7886 -180 62.4767 180 1.07029 3.07021 0.0791294 -8.53783e-07 -0.148671 0.0559529 -3.04427 -16.0507 4.21884 0.374722 33.4125 -0.247081 0.0528815 2.25669 0 0.0362019 -31.0195 0.185575 
